PathFileType	4	(X/Y/Z)	Kaydara																																																																																																																									
DataRate	CameraRate	NumFrames	NumMarkers	Units	OrigDataRate	OrigDataStartFrame	OrigNumFrames																																																																																																																					
30	30	8	41	mm	30	50	192																																																																																																																					
Frame#	Time	PAIB_LFHD			PAIB_RFHD			PAIB_LBHD			PAIB_RBHD			PAIB_LFTShould			PAIB_RFTShould			PAIB_LRRShould			PAIB_RRRShould			PAIB_T10			PAIB_STRN			PAIB_TRUN			PAIB_LSHO			PAIB_LUPA			PAIB_LELB			PAIB_LFRM			PAIB_LWRA			PAIB_LWRB			PAIB_LFIN			PAIB_RSHO			PAIB_RUPA			PAIB_RELB			PAIB_RFRM			PAIB_RWRA			PAIB_RWRB			PAIB_RFIN			PAIB_LFWT			PAIB_RFWT			PAIB_LBWT			PAIB_RBWT			PAIB_LTHI			PAIB_LKNE			PAIB_LSHN			PAIB_LANK			PAIB_LHEE			PAIB_LTOE			PAIB_RTHI			PAIB_RKNE			PAIB_RSHN			PAIB_RANK			PAIB_RHEE			PAIB_RTOE		
		X1	Y1	Z1	X2	Y2	Z2	X3	Y3	Z3	X4	Y4	Z4	X5	Y5	Z5	X6	Y6	Z6	X7	Y7	Z7	X8	Y8	Z8	X9	Y9	Z9	X10	Y10	Z10	X11	Y11	Z11	X12	Y12	Z12	X13	Y13	Z13	X14	Y14	Z14	X15	Y15	Z15	X16	Y16	Z16	X17	Y17	Z17	X18	Y18	Z18	X19	Y19	Z19	X20	Y20	Z20	X21	Y21	Z21	X22	Y22	Z22	X23	Y23	Z23	X24	Y24	Z24	X25	Y25	Z25	X26	Y26	Z26	X27	Y27	Z27	X28	Y28	Z28	X29	Y29	Z29	X30	Y30	Z30	X31	Y31	Z31	X32	Y32	Z32	X33	Y33	Z33	X34	Y34	Z34	X35	Y35	Z35	X36	Y36	Z36	X37	Y37	Z37	X38	Y38	Z38	X39	Y39	Z39	X40	Y40	Z40	X41	Y41	Z41
																																																																																																																												
49	1.63	234.5756	1698.73505	-1964.95422	48.51574	1700.59235	-1974.82605	249.29441	1665.12634	-2090.93292	46.49718	1677.99652	-2090.07721	207.94708	1435.92728	-1959.47479	85.50185	1431.26801	-1965.93018	221.25494	1484.92767	-2110.51056	67.17399	1482.65488	-2105.9668	144.71219	1316.81473	-2172.35931	154.11339	1372.4826	-1915.52887	154.27814	1274.52797	-1881.81061	341.44505	1436.44897	-2036.16241	386.32362	1208.52783	-2020.298	403.47786	1118.99635	-2048.02979	418.09059	1010.11055	-1993.46451	355.1442	908.15994	-1897.56073	395.39452	880.89363	-1958.83133	405.12703	853.0603	-1892.49176	-40.77557	1426.89133	-2023.94104	-101.52329	1249.79355	-2052.1167	-120.20653	1129.84055	-2051.32736	-130.84903	996.69754	-2000.61295	-63.75039	908.936	-1893.66119	-133.49985	887.24091	-1935.84274	-120.28475	859.97879	-1866.82861	259.51756	966.53725	-1908.46405	23.10041	969.20692	-1914.73419	203.38936	1027.17079	-2121.54541	59.55817	1030.61752	-2122.25388	253.00415	749.87236	-2131.02081	286.58121	511.52115	-2051.69479	262.64462	312.36668	-2054.06204	260.20893	129.03584	-2145.21561	202.22179	117.93789	-2189.07547	260.45929	75.04429	-1971.21567	1.41963	731.25427	-2132.85248	-0.42225	487.72404	-2067.64984	57.90966	303.7554	-2057.88727	34.2816	113.53289	-2147.57523	98.11704	113.18018	-2197.12891	43.44974	76.98928	-1976.59775
50	1.663	234.50331	1698.70941	-1964.72763	48.36113	1700.5925	-1974.51904	249.0769	1665.03647	-2090.6868	46.32878	1677.97943	-2089.73892	207.77906	1435.8931	-1959.24805	85.28574	1431.21902	-1965.67703	221.01654	1484.95285	-2110.31113	66.92798	1482.68906	-2105.62561	144.40878	1316.90826	-2172.24777	153.94503	1372.47742	-1915.38651	154.17317	1274.47922	-1881.63208	340.91961	1436.15463	-2035.67719	386.26625	1208.73573	-2020.0528	403.37402	1119.0567	-2047.94769	418.03413	1010.13359	-1993.42529	355.01781	908.09364	-1897.67258	395.33398	880.8889	-1958.83545	405.11284	853.07846	-1892.54013	-40.95241	1426.87775	-2023.48312	-101.66574	1249.75807	-2051.72516	-120.36313	1129.91913	-2051.11145	-130.76622	996.62628	-2000.3566	-63.54515	908.87604	-1893.49167	-133.28444	887.10342	-1935.5928	-119.93612	859.84184	-1866.63651	259.62559	966.57585	-1908.41476	23.15827	969.12239	-1914.55093	203.26982	1027.1344	-2121.53778	59.41525	1030.55489	-2122.10953	252.94785	749.84245	-2130.97839	286.58419	511.46362	-2051.68152	262.68793	312.30927	-2054.04343	260.19472	128.96795	-2145.27695	202.18504	117.90283	-2189.07043	260.45664	75.00914	-1971.22559	1.30104	731.18378	-2132.5943	-0.4084	487.64557	-2067.32666	58.14734	303.58177	-2057.7562	34.31711	113.51738	-2147.56271	98.07255	113.17229	-2197.14981	43.53635	76.99506	-1976.54282
51	1.697	234.27437	1698.58109	-1964.34662	48.21055	1700.56091	-1974.08661	248.83928	1665.04868	-2090.39108	46.12103	1678.06473	-2089.31107	207.50223	1435.87967	-1958.94928	85.02654	1431.11923	-1965.37521	220.77461	1484.97559	-2110.02319	66.62683	1482.71378	-2105.28015	144.12711	1316.93573	-2171.99951	153.79018	1372.3613	-1915.0386	154.1032	1274.4265	-1881.42776	340.66288	1436.14746	-2035.23682	386.07773	1208.66051	-2020.16739	403.24745	1119.09554	-2047.88895	417.95158	1010.17563	-1993.46725	355.03361	908.09738	-1897.71332	395.33474	880.88448	-1958.91815	405.15965	853.05511	-1892.67487	-41.17539	1426.82938	-2023.05573	-101.88847	1249.71031	-2051.32553	-120.50764	1129.88853	-2050.80627	-130.7852	996.53305	-2000.04562	-63.44297	908.73184	-1893.37967	-133.18123	886.97258	-1935.33142	-119.72144	859.67453	-1866.44028	259.70694	966.6832	-1908.367	23.13335	969.09927	-1914.36951	203.06629	1027.03529	-2121.46423	59.26111	1030.44273	-2121.92642	252.82663	749.77409	-2130.88806	286.62226	511.45424	-2051.57349	262.70178	312.27577	-2053.90976	260.16893	128.99864	-2145.25635	202.19446	117.87204	-2189.05273	260.46459	75.02113	-1971.24496	1.14863	731.082	-2132.29111	-0.40023	487.61906	-2066.97067	58.21765	303.55713	-2057.54166	34.31721	113.50539	-2147.4794	98.07149	113.15698	-2197.15073	43.65263	77.00037	-1976.46622
52	1.73	234.12722	1698.50861	-1963.93707	47.98232	1700.60577	-1973.47702	248.51925	1665.0264	-2089.95926	45.76865	1678.12439	-2088.72894	207.2706	1435.88074	-1958.61084	84.95603	1431.19919	-1964.82391	220.40863	1485.06287	-2109.6875	66.24324	1482.72217	-2104.84619	143.78873	1317.04437	-2171.78986	153.63892	1372.34711	-1914.80789	153.92836	1274.3441	-1881.13037	340.4303	1436.36444	-2035.14069	386.00323	1208.82774	-2020.05814	403.0423	1119.19823	-2047.86469	417.82341	1010.22339	-1993.47229	354.9477	907.98019	-1897.76825	395.27622	880.91934	-1959.0033	405.1104	853.02834	-1892.70935	-41.46411	1426.75995	-2022.56287	-102.17325	1249.61929	-2050.86578	-120.73677	1129.81651	-2050.466	-130.93493	996.39084	-1999.68018	-63.43629	908.55026	-1893.11264	-133.22337	886.82922	-1935.05966	-119.65603	859.47525	-1866.14731	259.49375	966.69434	-1908.26889	23.04528	969.06624	-1914.15375	202.77534	1027.03331	-2121.36307	58.99414	1030.33432	-2121.67511	252.65957	749.71695	-2130.76508	286.60873	511.4167	-2051.41556	262.76897	312.14848	-2053.79517	260.19068	128.95714	-2145.29465	202.13661	117.88343	-2189.01047	260.49526	75.02262	-1971.23627	0.96387	731.03989	-2131.92719	-0.38444	487.58553	-2066.51703	58.39314	303.5314	-2057.24442	34.32156	113.57168	-2147.37106	98.21348	113.0704	-2197.03568	43.74332	77.005	-1976.39984
53	1.763	233.65534	1698.44635	-1963.27621	47.66868	1700.57556	-1972.7478	248.09511	1665.08011	-2089.43878	45.34786	1678.14743	-2088.04108	207.08658	1435.92773	-1958.19778	84.61623	1431.11008	-1964.33807	220.04826	1485.20004	-2109.2215	65.85237	1482.76215	-2104.34143	143.44814	1317.14767	-2171.38535	153.40594	1372.23724	-1914.29932	153.62442	1274.19403	-1880.87219	339.34605	1436.91315	-2037.3558	385.8503	1208.87566	-2019.83276	402.81509	1119.32877	-2047.81174	417.72739	1010.49683	-1993.68927	354.92435	908.01285	-1897.88422	395.14385	880.94872	-1959.14932	405.08934	853.04115	-1892.96783	-41.75709	1426.63483	-2022.02087	-102.40196	1249.4989	-2050.35645	-121.03473	1129.66095	-2050.03082	-131.14065	996.23993	-1999.30328	-63.51191	908.36319	-1892.91061	-133.35567	886.69571	-1934.7821	-119.7316	859.32724	-1865.83939	259.15754	966.67938	-1908.18756	22.79265	969.1378	-1913.81104	202.34797	1027.08519	-2121.30325	58.57623	1030.27916	-2121.39252	252.43574	749.65736	-2130.54474	286.64219	511.40888	-2051.20895	262.8945	312.10114	-2053.57208	260.24055	129.0181	-2145.22766	202.21348	117.86999	-2188.98819	260.53534	75.01126	-1971.26297	0.5748	730.93689	-2131.5979	-0.57531	487.57027	-2065.88333	58.47169	303.43225	-2056.78162	34.33464	113.48573	-2147.29263	98.17399	113.09048	-2196.97006	43.84881	76.99287	-1976.35681
54	1.797	233.20612	1698.45627	-1962.52136	47.10568	1700.39658	-1971.99783	247.69367	1665.24643	-2088.74329	44.88242	1678.11157	-2087.22443	206.65678	1435.94315	-1957.59552	84.157	1431.13541	-1963.76862	219.66814	1485.30289	-2108.5936	65.42691	1482.85995	-2103.76541	143.08908	1317.30148	-2170.97122	152.93097	1372.12952	-1913.81363	153.13581	1274.01466	-1880.4512	339.80167	1436.51794	-2034.19067	385.67596	1209.02122	-2019.63608	402.54883	1119.42825	-2047.71774	417.38338	1010.34775	-1993.53821	354.79099	907.93747	-1898.03146	394.97326	880.95436	-1959.3486	404.87289	852.91946	-1893.12363	-42.27079	1426.64169	-2021.51031	-102.76855	1249.46747	-2049.87381	-121.29961	1129.62662	-2049.58618	-131.38836	996.10489	-1998.93478	-63.73445	908.24127	-1892.6265	-133.55382	886.57394	-1934.48914	-119.97257	859.1835	-1865.57327	258.75721	966.81412	-1908.12622	22.30785	969.25308	-1913.74451	201.80017	1027.11449	-2121.20361	58.0097	1030.17426	-2121.1969	252.20469	749.46922	-2130.23071	286.84467	511.40717	-2051.02463	263.22393	311.99215	-2053.35266	260.49477	128.94979	-2145.23224	202.43301	117.80297	-2189.01093	260.59946	74.97009	-1971.25549	0.14034	730.77461	-2131.08383	-0.88793	487.56207	-2064.53934	58.35135	303.11197	-2055.91965	34.14901	113.43544	-2147.14554	97.9256	113.18578	-2196.93024	43.91585	77.00971	-1976.39191
55	1.83	232.63744	1698.30688	-1961.50314	46.59407	1700.40375	-1971.02264	247.21546	1665.30273	-2087.77832	44.40992	1678.18253	-2086.33179	206.01757	1435.87769	-1956.76392	83.42404	1431.14349	-1963.1514	219.12193	1485.41748	-2107.74414	64.80605	1482.97516	-2103.00873	142.51234	1317.51434	-2170.4245	152.27705	1372.07047	-1913.10577	152.62301	1273.85902	-1879.83871	339.13586	1436.36627	-2033.41476	387.38811	1209.12804	-2016.94641	402.13463	1119.47655	-2047.40936	417.0602	1010.31113	-1993.48999	354.44115	907.64359	-1898.22952	394.72549	880.84846	-1959.5491	404.67487	852.75009	-1893.3902	-42.90477	1426.64948	-2020.80856	-103.31431	1249.52454	-2049.39377	-121.65789	1129.52103	-2048.94363	-131.83398	996.11351	-1998.59314	-63.98464	908.21068	-1892.20886	-133.84458	886.42212	-1934.13528	-120.22093	859.03343	-1865.32486	257.97283	966.75011	-1907.96402	21.63364	969.38095	-1913.7117	201.00819	1027.04514	-2121.09909	57.31088	1030.02174	-2121.11176	251.9696	749.29169	-2129.98703	286.77866	511.41319	-2050.74341	263.26019	311.83176	-2053.12836	260.69508	128.8869	-2145.31494	202.71528	117.76281	-2189.07501	260.68411	75.00008	-1971.35315	-0.54919	730.35233	-2130.28778	-0.91066	487.50237	-2062.28836	58.54471	302.75681	-2054.57672	34.1382	113.52282	-2146.60248	97.90418	113.30268	-2196.65573	44.02835	77.00827	-1976.24786
56	1.863	231.93394	1698.11523	-1960.1825	45.96615	1700.42542	-1969.91852	246.54854	1665.224	-2086.44165	43.76778	1678.29926	-2085.2327	205.08196	1435.68039	-1955.75012	82.44846	1431.06415	-1962.3381	218.30585	1485.57892	-2106.69006	64.02032	1483.11478	-2101.94427	141.70321	1317.79053	-2169.73892	151.36541	1371.80984	-1912.1666	151.6479	1273.60321	-1879.04327	338.2917	1436.37573	-2032.15012	384.32564	1206.97243	-2013.43292	401.41857	1119.54689	-2047.00333	416.49338	1010.38948	-1993.43414	354.01768	907.33559	-1898.2814	394.3153	880.65651	-1959.7374	404.35524	852.37144	-1893.71521	-43.75874	1426.70456	-2019.91272	-104.06689	1249.52179	-2048.65829	-122.35313	1129.45549	-2048.28323	-132.37449	996.03836	-1998.16849	-64.57171	908.12843	-1891.86127	-134.25028	886.31668	-1933.77304	-120.61593	858.90152	-1864.99664	256.91996	966.66451	-1907.95654	20.94352	969.25148	-1913.4201	200.04929	1027.02034	-2120.99762	56.30381	1029.87297	-2120.72723	251.52063	749.15413	-2129.75937	286.42738	511.32793	-2050.39169	263.2107	311.68676	-2052.92404	260.6893	128.8205	-2145.39124	202.73634	117.6563	-2189.09683	260.7345	75.00173	-1971.42044	-1.28565	730.14671	-2129.72305	-1.14221	487.43118	-2060.71777	58.56301	302.5359	-2053.72482	34.15245	113.54653	-2146.22787	97.79364	113.51632	-2196.44409	44.20537	77.04501	-1976.1319
